<?xml version="1.0" encoding="UTF-8"?>
<svg id="Capa_2" data-name="Capa 2" xmlns="http://www.w3.org/2000/svg" viewBox="0 0 233.55 278.35">
  <defs>
    <style>
      .cls-1 {
        fill: #ee761d;
      }

      .cls-2 {
        fill: #e0cfc7;
      }
    </style>
  </defs>
  <g id="Capa_1-2" data-name="Capa 1">
    <g>
      <path class="cls-2" d="M175,60.75l8.73-11.26-8.21-6.37,10.16-13.1,37.67,29.21-10.67,13.76-7.53-5.84-8.22,10.6c-2.52-2.94-5.9-6.38-10.29-9.76-4.22-3.25-8.25-5.57-11.63-7.24Z"/>
      <path class="cls-1" d="M116.77,44.8C52.28,44.8,0,97.08,0,161.57s52.28,116.77,116.77,116.77,116.77-52.28,116.77-116.77-52.28-116.77-116.77-116.77ZM116.77,263.74c-56.42,0-102.16-45.74-102.16-102.16S60.35,59.41,116.77,59.41s102.16,45.74,102.16,102.16-45.74,102.16-102.16,102.16Z"/>
      <path class="cls-1" d="M74.75,0v28.98h18.17v24.9h48.49v-24.9h16.67V0h-83.33ZM81.27,25.45h-3.26V2.63h3.26v22.82ZM87.52,25.45h-3.26V2.63h3.26v22.82ZM93.77,25.45h-3.26V2.63h3.26v22.82ZM100.02,25.45h-3.26V2.63h3.26v22.82ZM106.27,25.45h-3.26V2.63h3.26v22.82ZM112.52,25.45h-3.26V2.63h3.26v22.82ZM118.77,25.45h-3.26V2.63h3.26v22.82ZM125.02,25.45h-3.26V2.63h3.26v22.82ZM131.27,25.45h-3.26V2.63h3.26v22.82ZM137.52,25.45h-3.26V2.63h3.26v22.82ZM143.76,25.45h-3.26V2.63h3.26v22.82ZM150.01,25.45h-3.26V2.63h3.26v22.82ZM156.26,25.45h-3.26V2.63h3.26v22.82Z"/>
      <path class="cls-1" d="M121.76,144.88l54.89-46.46-47.01,55.7s1.09,4.04,0,7.46c-1.09,3.41-3.99,11.02-12.86,11.02s-13.77-8.42-13.77-12.5,4.17-14.67,13.77-14.67,4.98-.54,4.98-.54Z"/>
      <path class="cls-2" d="M117.14,63.91l1.63,76.35,59.78-50.81c-4.63-5.1-13.94-14.02-28.53-19.92-13.84-5.6-26.08-5.93-32.88-5.62Z"/>
    </g>
  </g>
</svg>